<svg xmlns="http://www.w3.org/2000/svg" viewBox="0 0 400 400"><circle fill="#957D60" cx="200" cy="200" r="188.4"/><linearGradient id="a" gradientUnits="userSpaceOnUse" x1="199.999" y1="371.719" x2="199.999" y2="28.281"><stop offset=".591" stop-color="#c2b59b"/><stop offset=".601" stop-color="#c5b89f"/><stop offset=".61" stop-color="#cdc2ac"/><stop offset=".62" stop-color="#dad1c1"/><stop offset=".63" stop-color="#ece7dd"/><stop offset=".634" stop-color="#f5f2ec"/></linearGradient><path fill="url(#a)" d="M36.3 148.1c-5.2 16.4-8 33.8-8 51.9 0 94.8 76.9 171.7 171.7 171.7 94.8 0 171.7-76.9 171.7-171.7 0-18.1-2.8-35.5-8-51.9H36.3z"/><linearGradient id="b" gradientUnits="userSpaceOnUse" x1="200" y1="147.991" x2="200" y2="11.599"><stop offset=".005" stop-color="#41312c"/><stop offset=".097" stop-color="#725a50"/><stop offset=".468" stop-color="#43332e"/><stop offset=".839" stop-color="#41312c"/><stop offset="1" stop-color="#41312c"/></linearGradient><path fill="url(#b)" d="M200 11.6C114 11.6 41.4 69.2 18.9 148h362.3C358.6 69.2 286 11.6 200 11.6z"/><linearGradient id="c" gradientUnits="userSpaceOnUse" x1="80.762" y1="139.79" x2="80.762" y2="13.578"><stop offset="0" stop-color="#e02228"/><stop offset="1" stop-color="#f1654f"/></linearGradient><path fill="url(#c)" d="M86.5 139.8V49.7c-4 3.1-7.8 6.3-11.5 9.7v80.4h11.5z"/><linearGradient id="d" gradientUnits="userSpaceOnUse" x1="92.292" y1="139.79" x2="92.292" y2="13.578"><stop offset="0" stop-color="#fcbc0b"/><stop offset="1" stop-color="#fede74"/></linearGradient><path fill="url(#d)" d="M98.1 139.8V41.4c-3.9 2.6-7.8 5.4-11.5 8.3v90.1h11.5z"/><linearGradient id="e" gradientUnits="userSpaceOnUse" x1="103.821" y1="139.79" x2="103.821" y2="13.578"><stop offset="0" stop-color="#91c65f"/><stop offset="1" stop-color="#c4de95"/></linearGradient><path fill="url(#e)" d="M98.1 139.8h11.5V34.4c-3.9 2.2-7.8 4.6-11.5 7v98.4z"/><linearGradient id="f" gradientUnits="userSpaceOnUse" x1="115.351" y1="139.79" x2="115.351" y2="13.579"><stop offset="0" stop-color="#3a75ba"/><stop offset="1" stop-color="#4792ce"/></linearGradient><path fill="url(#f)" d="M121.1 139.8V28.4c-3.9 1.9-7.8 3.9-11.5 6v105.4h11.5z"/><path fill="#2B201E" stroke="#2B201E" stroke-miterlimit="10" d="M133.8 154.1c0 13.1-12 23.8-26.7 23.8H88.8c-14.8 0-26.7-10.7-26.7-23.8 0-13.1 12-23.8 26.7-23.8H107c14.8 0 26.8 10.7 26.8 23.8z"/><path opacity=".3" fill="#FFF" d="M133.8 141.5c0 13.1-12 23.8-26.7 23.8H88.8c-14.8 0-26.7-10.7-26.7-23.8 0-13.1 12-23.8 26.7-23.8H107c14.8 0 26.8 10.6 26.8 23.8z"/><path fill="#42322C" d="M133.8 153.2c0 13.1-12 23.8-26.7 23.8H88.8c-14.8 0-26.7-10.7-26.7-23.8 0-13.1 12-23.8 26.7-23.8H107c14.8 0 26.8 10.7 26.8 23.8z"/><text transform="translate(77.311 162.25)" fill="#F1F2F2" font-family="'MyriadPro-Regular'" font-size="20.606">INST</text><circle fill="#A39885" cx="200" cy="210.3" r="94.7"/><circle fill="#E7E0D6" cx="200" cy="200" r="93.7"/><circle cx="200" cy="200" r="81"/><radialGradient id="g" cx="200" cy="200" r="76.535" gradientUnits="userSpaceOnUse"><stop offset="0" stop-color="#fff" stop-opacity=".5"/><stop offset=".839" stop-color="#102a45" stop-opacity=".9"/><stop offset="1"/></radialGradient><path fill="url(#g)" d="M276.5 200c0 42.3-34.3 76.5-76.5 76.5-42.3 0-76.5-34.3-76.5-76.5 0-42.3 34.3-76.5 76.5-76.5 42.3 0 76.5 34.2 76.5 76.5z"/><circle fill="#364144" cx="200" cy="200" r="46.1"/><radialGradient id="h" cx="199.999" cy="200" r="40.231" gradientUnits="userSpaceOnUse"><stop offset="0" stop-color="#fff"/><stop offset=".694" stop-color="#2e3192" stop-opacity=".5"/><stop offset="1"/></radialGradient><circle fill="url(#h)" cx="200" cy="200" r="40.2"/><path opacity=".4" d="M202.3 150.5c.3 0 .6.1.9.1l1.8-22.1c-.3 0-.6-.1-.9-.1-10.7-.9-21.1.8-30.5 4.5l9.6 20.1c5.9-2.1 12.4-3 19.1-2.5zm-29.1 9.9l-13.5-20.5c-7.5 5.3-14 12-19.2 19.7l20.7 13.2c3.3-4.8 7.3-9 12-12.4z" fill="#FFF"/><path fill="#FFF" d="M277.4 200c0-2.3-.1-4.5-.3-6.8-6.2-1.3-12.7-2.1-19.3-2.1-46.3 0-84.5 34.5-90.4 79.2 9.9 4.6 20.9 7.2 32.5 7.2 42.8 0 77.5-34.7 77.5-77.5z" opacity=".3"/><path fill="#8E7B73" d="M313.5 98.6c0 11.7-9.5 21.2-21.2 21.2h-23.8c-11.7 0-21.2-9.5-21.2-21.2V77.2c0-11.7 9.5-21.2 21.2-21.2h23.8c11.7 0 21.2 9.5 21.2 21.2v21.4z"/><linearGradient id="i" gradientUnits="userSpaceOnUse" x1="280.342" y1="113.798" x2="280.342" y2="50.016"><stop offset="0" stop-color="#311e18"/><stop offset=".801" stop-color="#150c09"/></linearGradient><path fill="url(#i)" d="M313.5 92.6c0 11.7-9.5 21.2-21.2 21.2h-23.8c-11.7 0-21.2-9.5-21.2-21.2V71.2c0-11.7 9.5-21.2 21.2-21.2h23.8c11.7 0 21.2 9.5 21.2 21.2v21.4z"/><radialGradient id="j" cx="280.341" cy="82.985" r="26.248" gradientUnits="userSpaceOnUse"><stop offset="0" stop-color="#57443c"/><stop offset=".13" stop-color="#42342e"/><stop offset=".352" stop-color="#261d1a"/><stop offset=".574" stop-color="#110d0c"/><stop offset=".791" stop-color="#040303"/><stop offset="1"/></radialGradient><circle fill="url(#j)" cx="280.3" cy="83" r="26.2"/><path opacity=".4" fill="#FFF" d="M291.6 79c.1.1.1.2.2.3l7.4-4.1c-.1-.1-.1-.2-.2-.3-2-3.6-4.7-6.5-7.9-8.7l-4.4 7.3c2 1.4 3.7 3.2 4.9 5.5z"/></svg>